<svg width="640" height="640" viewBox="0 0 640 640" fill="none" xmlns="http://www.w3.org/2000/svg">
  <defs>
    <radialGradient id="glow" cx="0" cy="0" r="1" gradientUnits="userSpaceOnUse" gradientTransform="translate(320 320) rotate(90) scale(220)">
      <stop stop-color="white" stop-opacity="0.18"/>
      <stop offset="1" stop-color="white" stop-opacity="0"/>
    </radialGradient>
    <linearGradient id="disk" x1="176" y1="160" x2="468" y2="480" gradientUnits="userSpaceOnUse">
      <stop stop-color="#252833"/>
      <stop offset="1" stop-color="#12141B"/>
    </linearGradient>
    <linearGradient id="gold" x1="240" y1="200" x2="402" y2="410" gradientUnits="userSpaceOnUse">
      <stop stop-color="#F4B84E"/>
      <stop offset="1" stop-color="#D59135"/>
    </linearGradient>
  </defs>

  <rect width="640" height="640" rx="160" fill="#0D1016"/>
  <circle cx="320" cy="320" r="220" fill="url(#glow)"/>
  <circle cx="320" cy="320" r="160" fill="url(#disk)" stroke="rgba(255,255,255,0.10)" stroke-width="6"/>

  <g stroke="#FFFFFF" stroke-opacity="0.18" stroke-width="6" stroke-linecap="round">
    <line x1="320" y1="146" x2="320" y2="184"/>
    <line x1="320" y1="456" x2="320" y2="494"/>
    <line x1="146" y1="320" x2="184" y2="320"/>
    <line x1="456" y1="320" x2="494" y2="320"/>
    <line x1="197.1" y1="197.1" x2="223.9" y2="223.9"/>
    <line x1="416.1" y1="416.1" x2="442.9" y2="442.9"/>
    <line x1="197.1" y1="442.9" x2="223.9" y2="416.1"/>
    <line x1="416.1" y1="223.9" x2="442.9" y2="197.1"/>
  </g>

  <circle cx="320" cy="320" r="116" stroke="url(#gold)" stroke-width="16"/>

  <path d="M320 206L360 318C334 310 306 310 280 318L320 206Z" fill="url(#gold)"/>
  <path d="M320 394L344 328C329 332 311 332 296 328L320 394Z" fill="white" fill-opacity="0.18"/>

  <text x="320" y="410" text-anchor="middle" font-size="210" font-weight="900" fill="#F4B84E" font-family="SF Pro Rounded, Arial Rounded MT Bold, sans-serif">₿</text>
</svg>
